<?xml version="1.0" encoding="UTF-8"?>
<svg version="1.1" xmlns="http://www.w3.org/2000/svg" width="64" height="64">
<path d="M0 0 C1.98 0 3.96 0 6 0 C6 1.65 6 3.3 6 5 C10.95 5 15.9 5 21 5 C21 3.35 21 1.7 21 0 C22.98 0 24.96 0 27 0 C27 1.65 27 3.3 27 5 C27.5775 5.0825 28.155 5.165 28.75 5.25 C31.81201906 6.27067302 33.00936631 7.44559709 35 10 C35.41043031 12.68968039 35.58525355 14.9643354 35.56640625 17.65234375 C35.57570412 18.7580648 35.57570412 18.7580648 35.58518982 19.88612366 C35.59227893 21.4418913 35.58912966 22.99773495 35.57641602 24.5534668 C35.56256101 26.92704775 35.59661052 29.29667458 35.63476562 31.66992188 C35.63571703 33.18489679 35.63385682 34.69987662 35.62890625 36.21484375 C35.64216446 36.9201976 35.65542267 37.62555145 35.66908264 38.35227966 C35.60023751 42.01844185 35.05660149 43.91888039 32.94506836 46.94506836 C29.32797642 49.46890678 26.51524689 49.72553814 22.25 49.6640625 C21.14640137 49.67123795 21.14640137 49.67123795 20.02050781 49.67855835 C18.47068127 49.6819488 16.92078239 49.67280592 15.37109375 49.65185547 C13.00618214 49.62507002 10.64601498 49.65162417 8.28125 49.68359375 C6.77082292 49.68028949 5.26039877 49.6738829 3.75 49.6640625 C2.6966748 49.67924423 2.6966748 49.67924423 1.62207031 49.69473267 C-2.03046449 49.60806028 -3.92985413 49.04903344 -6.94287109 46.94287109 C-9.47028455 43.32722407 -9.72554485 40.51571282 -9.6640625 36.25 C-9.66884613 35.51426758 -9.67362976 34.77853516 -9.67855835 34.02050781 C-9.6819488 32.47068127 -9.67280592 30.92078239 -9.65185547 29.37109375 C-9.62507002 27.00618214 -9.65162417 24.64601498 -9.68359375 22.28125 C-9.68028949 20.77082292 -9.6738829 19.26039877 -9.6640625 17.75 C-9.67418365 17.0477832 -9.68430481 16.34556641 -9.69473267 15.62207031 C-9.60400724 11.7987327 -9.06194495 10.08067495 -6.70849609 7.015625 C-4 5 -4 5 0 5 C0 3.35 0 1.7 0 0 Z " fill="#4CCDEF" transform="translate(19,5)"/>
<path d="M0 0 C1.98 0 3.96 0 6 0 C6 1.65 6 3.3 6 5 C10.95 5 15.9 5 21 5 C21 3.35 21 1.7 21 0 C22.98 0 24.96 0 27 0 C27 1.65 27 3.3 27 5 C27.5775 5.0825 28.155 5.165 28.75 5.25 C31.80545009 6.26848336 33.08676027 7.40346036 35 10 C35 12.31 35 14.62 35 17 C22.13 17 9.26 17 -4 17 C-4 16.01 -4 15.02 -4 14 C-4.99 14 -5.98 14 -7 14 C-7 14.99 -7 15.98 -7 17 C-7.66 17 -8.32 17 -9 17 C-9.43290439 12.58437517 -9.50000327 10.65278204 -6.75 7.0625 C-4 5 -4 5 0 5 C0 3.35 0 1.7 0 0 Z " fill="#F3384B" transform="translate(19,5)"/>
<path d="M0 0 C0.14536813 4.39548491 0.23409948 8.79035087 0.3125 13.1875 C0.35439453 14.43337891 0.39628906 15.67925781 0.43945312 16.96289062 C0.56178997 26.08921929 0.56178997 26.08921929 -2.0625 30.34375 C-5.74586092 32.4205386 -8.10740658 32.50899969 -12.3125 32.3125 C-13.56675781 32.26738281 -14.82101563 32.22226562 -16.11328125 32.17578125 C-17.54220703 32.08876953 -17.54220703 32.08876953 -19 32 C-18.67 30.68 -18.34 29.36 -18 28 C-16.37548581 27.66430703 -14.75037083 27.3315204 -13.125 27 C-12.22007813 26.814375 -11.31515625 26.62875 -10.3828125 26.4375 C-8 26 -8 26 -6 26 C-5.98541748 25.31897217 -5.97083496 24.63794434 -5.95581055 23.9362793 C-5.88137304 20.85277785 -5.78469917 17.77036433 -5.6875 14.6875 C-5.65366211 13.0797168 -5.65366211 13.0797168 -5.61914062 11.43945312 C-5.58369141 10.41142578 -5.54824219 9.38339844 -5.51171875 8.32421875 C-5.48553467 7.37635498 -5.45935059 6.42849121 -5.43237305 5.4519043 C-4.84072891 2.09680434 -3.59266954 0 0 0 Z " fill="#45ADCB" transform="translate(54,22)"/>
<path d="M0 0 C1.91329102 -0.01836914 1.91329102 -0.01836914 3.86523438 -0.03710938 C5.09435547 -0.03904297 6.32347656 -0.04097656 7.58984375 -0.04296875 C8.71124756 -0.04707764 9.83265137 -0.05118652 10.98803711 -0.05541992 C14.07683614 0.18863273 16.27435709 0.87610154 19.0625 2.1875 C18.7325 3.1775 18.4025 4.1675 18.0625 5.1875 C12.68167008 7.37373317 5.8168152 6.37213259 0.125 6.375 C-1.15052734 6.38724609 -2.42605469 6.39949219 -3.74023438 6.41210938 C-5.58391602 6.41500977 -5.58391602 6.41500977 -7.46484375 6.41796875 C-9.14694946 6.42413208 -9.14694946 6.42413208 -10.86303711 6.43041992 C-13.95183614 6.18636727 -16.14935709 5.49889846 -18.9375 4.1875 C-18.6075 3.1975 -18.2775 2.2075 -17.9375 1.1875 C-12.55667008 -0.99873317 -5.6918152 0.00286741 0 0 Z " fill="#000000" transform="translate(31.9375,57.8125)"/>
<path d="M0 0 C0.99 0 1.98 0 3 0 C3.08086376 2.93804996 3.1404283 5.87388075 3.1875 8.8125 C3.21263672 9.64587891 3.23777344 10.47925781 3.26367188 11.33789062 C3.27333984 12.14033203 3.28300781 12.94277344 3.29296875 13.76953125 C3.3086792 14.50792236 3.32438965 15.24631348 3.34057617 16.00708008 C2.9047656 18.55727485 2.02623737 19.44175849 0 21 C-0.66 21 -1.32 21 -2 21 C-2 15.06 -2 9.12 -2 3 C-1.34 3 -0.68 3 0 3 C0 2.01 0 1.02 0 0 Z " fill="#81DDF5" transform="translate(12,19)"/>
<path d="M0 0 C1.98 0 3.96 0 6 0 C6 3.63 6 7.26 6 11 C4.35 11.33 2.7 11.66 1 12 C0 11 0 11 -0.09765625 8.49609375 C-0.08605469 7.48675781 -0.07445312 6.47742188 -0.0625 5.4375 C-0.05347656 4.42558594 -0.04445312 3.41367188 -0.03515625 2.37109375 C-0.02355469 1.58863281 -0.01195312 0.80617188 0 0 Z " fill="#4FC9EA" transform="translate(40,5)"/>
<path d="M0 0 C1.98 0 3.96 0 6 0 C6 3.63 6 7.26 6 11 C4.35 11.33 2.7 11.66 1 12 C0 11 0 11 -0.09765625 8.49609375 C-0.08605469 7.48675781 -0.07445313 6.47742188 -0.0625 5.4375 C-0.05347656 4.42558594 -0.04445313 3.41367188 -0.03515625 2.37109375 C-0.02355469 1.58863281 -0.01195313 0.80617188 0 0 Z " fill="#4FC9EB" transform="translate(19,5)"/>
<path d="M0 0 C0.37254569 3.35291118 0.31050198 4.6038423 -1.8125 7.3125 C-4 9 -4 9 -7 9 C-7 9.99 -7 10.98 -7 12 C-7.66 12 -8.32 12 -9 12 C-9.43290439 7.58437517 -9.50000327 5.65278204 -6.75 2.0625 C-4 0 -4 0 0 0 Z " fill="#FC7481" transform="translate(19,10)"/>
<path d="M0 0 C3.3 0 6.6 0 10 0 C9.67 1.32 9.34 2.64 9 4 C6.04335481 5.4783226 3.25770263 5.06032783 0 5 C0 3.35 0 1.7 0 0 Z " fill="#FB7380" transform="translate(25,10)"/>
<path d="M0 0 C1.65 0.33 3.3 0.66 5 1 C4.67 2.65 4.34 4.3 4 6 C2.35 5.67 0.7 5.34 -1 5 C-0.67 3.35 -0.34 1.7 0 0 Z " fill="#028AAE" transform="translate(30,43)"/>
<path d="M0 0 C1.65 0.33 3.3 0.66 5 1 C4.67 2.65 4.34 4.3 4 6 C2.35 5.67 0.7 5.34 -1 5 C-0.67 3.35 -0.34 1.7 0 0 Z " fill="#028AAE" transform="translate(20,43)"/>
<path d="M0 0 C1.65 0.33 3.3 0.66 5 1 C4.67 2.65 4.34 4.3 4 6 C2.35 5.67 0.7 5.34 -1 5 C-0.67 3.35 -0.34 1.7 0 0 Z " fill="#028AAE" transform="translate(40,34)"/>
<path d="M0 0 C1.65 0.33 3.3 0.66 5 1 C4.67 2.65 4.34 4.3 4 6 C2.35 5.67 0.7 5.34 -1 5 C-0.67 3.35 -0.34 1.7 0 0 Z " fill="#F84053" transform="translate(30,34)"/>
<path d="M0 0 C1.65 0.33 3.3 0.66 5 1 C4.67 2.65 4.34 4.3 4 6 C2.35 5.67 0.7 5.34 -1 5 C-0.67 3.35 -0.34 1.7 0 0 Z " fill="#028AAE" transform="translate(20,34)"/>
<path d="M0 0 C1.65 0.33 3.3 0.66 5 1 C4.67 2.65 4.34 4.3 4 6 C2.35 5.67 0.7 5.34 -1 5 C-0.67 3.35 -0.34 1.7 0 0 Z " fill="#028AAE" transform="translate(40,25)"/>
<path d="M0 0 C1.65 0.33 3.3 0.66 5 1 C4.67 2.65 4.34 4.3 4 6 C2.35 5.67 0.7 5.34 -1 5 C-0.67 3.35 -0.34 1.7 0 0 Z " fill="#028AAE" transform="translate(30,25)"/>
<path d="M0 0 C0.99 0 1.98 0 3 0 C3 2.64 3 5.28 3 8 C2.01 8 1.02 8 0 8 C0 5.36 0 2.72 0 0 Z " fill="#FDFCFD" transform="translate(12,19)"/>
</svg>
