<?xml version="1.0" standalone="no"?>
<!DOCTYPE svg PUBLIC "-//W3C//DTD SVG 20010904//EN"
 "http://www.w3.org/TR/2001/REC-SVG-20010904/DTD/svg10.dtd">
<svg version="1.0" xmlns="http://www.w3.org/2000/svg"
 width="514.000000pt" height="447.000000pt" viewBox="0 0 514.000000 447.000000"
 preserveAspectRatio="xMidYMid meet">

<g transform="translate(0.000000,447.000000) scale(0.100000,-0.100000)"
fill="#000000" stroke="none">
<path d="M746 3971 c-210 -210 -238 -242 -226 -256 7 -9 116 -120 241 -247
l227 -230 24 18 c12 11 124 121 248 246 l224 228 -239 240 c-132 132 -244 240
-250 240 -5 0 -118 -108 -249 -239z m318 -35 c50 -21 76 -60 76 -115 0 -57
-22 -94 -89 -152 -28 -24 -51 -47 -51 -51 0 -4 33 -8 73 -10 l72 -3 0 -40 0
-40 -152 -3 c-145 -2 -152 -2 -158 18 -10 33 2 54 68 116 89 85 127 132 127
160 0 43 -62 51 -127 16 -29 -16 -88 21 -74 46 13 24 37 44 70 59 36 16 125
16 165 -1z"/>
<path d="M1137 3192 l-167 -169 2 -279 c3 -242 5 -278 18 -275 47 14 210 1
295 -24 169 -48 273 -118 365 -245 l45 -62 3 256 c2 196 5 256 15 256 7 0 136
-124 287 -275 151 -151 278 -275 281 -275 3 0 14 21 24 48 105 283 174 442
229 531 13 20 25 44 29 54 6 16 4 16 -31 1 -20 -9 -75 -28 -122 -42 -74 -22
-104 -25 -235 -26 -127 0 -163 3 -235 23 -72 20 -244 93 -260 111 -3 3 -32 27
-65 52 -112 85 -188 189 -259 352 -24 54 -43 130 -38 149 6 23 -30 -10 -181
-161z"/>
<path d="M3900 2654 c-14 -2 -52 -9 -85 -15 -33 -5 -88 -19 -122 -30 l-63 -21
0 -1049 0 -1049 364 0 364 0 4 603 c2 331 2 794 0 1028 l-4 427 -77 36 c-42
19 -105 42 -141 50 -69 17 -199 27 -240 20z"/>
<path d="M1837 2123 c-16 -15 -5 -23 31 -22 30 2 32 3 9 6 -15 2 -25 9 -22 14
7 10 -8 12 -18 2z"/>
<path d="M2044 2111 c0 -11 5 -17 13 -14 16 6 45 -16 38 -27 -3 -5 -1 -11 4
-14 20 -13 3 27 -22 50 -31 29 -33 29 -33 5z"/>
<path d="M3232 2097 c-18 -18 -32 -36 -32 -40 0 -4 65 -7 145 -7 l145 0 0 40
0 40 -113 0 -113 0 -32 -33z"/>
<path d="M1853 2083 c9 -2 23 -2 30 0 6 3 -1 5 -18 5 -16 0 -22 -2 -12 -5z"/>
<path d="M2028 2073 c7 -3 16 -2 19 1 4 3 -2 6 -13 5 -11 0 -14 -3 -6 -6z"/>
<path d="M1838 2063 c7 -3 16 -2 19 1 4 3 -2 6 -13 5 -11 0 -14 -3 -6 -6z"/>
<path d="M3353 1765 c-48 -21 -57 -47 -57 -164 l0 -104 32 -28 c46 -41 101
-40 136 2 24 29 26 37 26 135 0 118 -10 145 -62 163 -38 13 -36 13 -75 -4z"/>
<path d="M2210 1644 c0 -8 5 -12 10 -9 6 3 10 10 10 16 0 5 -4 9 -10 9 -5 0
-10 -7 -10 -16z"/>
<path d="M2218 1619 c-13 -7 -15 -20 -11 -67 6 -73 23 -99 70 -108 41 -8 102
18 104 45 5 52 3 101 -3 101 -5 0 -8 -5 -8 -12 0 -6 -3 -8 -7 -5 -3 4 -12 2
-20 -4 -10 -9 -13 -7 -13 7 0 14 -3 15 -8 6 -7 -10 -14 -8 -34 8 -15 11 -31
20 -36 20 -6 0 -12 4 -14 9 -2 6 -9 6 -20 0z m9 -51 c-3 -8 -6 -5 -6 6 -1 11
2 17 5 13 3 -3 4 -12 1 -19z"/>
<path d="M2798 1285 c-33 -18 -41 -53 -40 -163 2 -93 19 -137 58 -152 74 -28
131 5 142 84 5 37 12 50 26 52 33 5 43 -7 49 -54 6 -57 43 -92 97 -92 53 1 83
29 89 86 6 48 7 49 41 49 33 0 35 -2 40 -40 7 -52 16 -64 57 -82 27 -11 42
-12 69 -3 56 19 64 40 64 168 0 109 -1 114 -26 137 -39 36 -96 34 -135 -4 -17
-17 -29 -40 -29 -55 0 -19 -6 -27 -25 -32 -39 -10 -55 1 -55 40 0 46 -37 76
-94 76 -54 -1 -86 -28 -93 -79 -4 -31 -10 -40 -29 -44 -32 -6 -40 2 -48 45
-12 68 -90 99 -158 63z"/>
<path d="M2604 1055 c3 -11 1 -27 -4 -35 -8 -12 -10 -9 -10 13 0 23 -4 27 -30
27 -17 0 -48 -9 -69 -20 -21 -10 -41 -16 -45 -13 -3 4 -6 2 -6 -4 0 -5 11 -20
25 -33 34 -32 97 -32 125 1 27 33 34 59 20 73 -9 8 -11 6 -6 -9z"/>
<path d="M2088 712 l-58 -3 0 -39 0 -40 635 0 635 0 0 39 c0 27 -5 41 -17 45
-16 6 -1073 4 -1195 -2z"/>
<path d="M3476 617 c-7 -14 -11 -16 -17 -6 -6 10 -11 10 -22 1 -7 -6 -30 -13
-50 -14 -20 -2 -37 -7 -37 -11 0 -4 -9 -3 -20 3 -17 9 -20 8 -20 -9 0 -33 11
-51 42 -67 66 -34 144 17 136 88 -3 27 -5 30 -12 15z"/>
</g>
</svg>
